<svg width="32" height="32" viewBox="0 0 32 32" fill="none" xmlns="http://www.w3.org/2000/svg">
<g opacity="0.6">
<path d="M16 4.99998C15.6936 4.99998 15.3902 5.06033 15.1071 5.17759C14.824 5.29486 14.5668 5.46673 14.3501 5.6834C14.1334 5.90007 13.9615 6.15729 13.8443 6.44039C13.727 6.72348 13.6667 7.0269 13.6667 7.33331C13.6667 7.63973 13.727 7.94315 13.8443 8.22624C13.9615 8.50933 14.1334 8.76656 14.3501 8.98323C14.5668 9.1999 14.824 9.37177 15.1071 9.48903C15.3902 9.60629 15.6936 9.66665 16 9.66665C16.6188 9.66665 17.2123 9.42081 17.6499 8.98323C18.0875 8.54564 18.3333 7.95215 18.3333 7.33331C18.3333 6.71447 18.0875 6.12098 17.6499 5.6834C17.2123 5.24581 16.6188 4.99998 16 4.99998ZM12 7.33331C12 6.27245 12.4214 5.25503 13.1716 4.50489C13.9217 3.75474 14.9391 3.33331 16 3.33331C17.0609 3.33331 18.0783 3.75474 18.8284 4.50489C19.5786 5.25503 20 6.27245 20 7.33331C20 8.39418 19.5786 9.41159 18.8284 10.1617C18.0783 10.9119 17.0609 11.3333 16 11.3333C14.9391 11.3333 13.9217 10.9119 13.1716 10.1617C12.4214 9.41159 12 8.39418 12 7.33331ZM24.6667 6.33331C24.2246 6.33331 23.8007 6.50891 23.4882 6.82147C23.1756 7.13403 23 7.55795 23 7.99998C23 8.44201 23.1756 8.86593 23.4882 9.17849C23.8007 9.49105 24.2246 9.66665 24.6667 9.66665C25.1087 9.66665 25.5326 9.49105 25.8452 9.17849C26.1577 8.86593 26.3333 8.44201 26.3333 7.99998C26.3333 7.55795 26.1577 7.13403 25.8452 6.82147C25.5326 6.50891 25.1087 6.33331 24.6667 6.33331ZM21.3333 7.99998C21.3333 7.11592 21.6845 6.26808 22.3096 5.64296C22.9348 5.01784 23.7826 4.66665 24.6667 4.66665C25.5507 4.66665 26.3986 5.01784 27.0237 5.64296C27.6488 6.26808 28 7.11592 28 7.99998C28 8.88403 27.6488 9.73188 27.0237 10.357C26.3986 10.9821 25.5507 11.3333 24.6667 11.3333C23.7826 11.3333 22.9348 10.9821 22.3096 10.357C21.6845 9.73188 21.3333 8.88403 21.3333 7.99998ZM5.66667 7.99998C5.66667 7.55795 5.84227 7.13403 6.15483 6.82147C6.46739 6.50891 6.89131 6.33331 7.33334 6.33331C7.77537 6.33331 8.19929 6.50891 8.51185 6.82147C8.82441 7.13403 9 7.55795 9 7.99998C9 8.44201 8.82441 8.86593 8.51185 9.17849C8.19929 9.49105 7.77537 9.66665 7.33334 9.66665C6.89131 9.66665 6.46739 9.49105 6.15483 9.17849C5.84227 8.86593 5.66667 8.44201 5.66667 7.99998ZM7.33334 4.66665C6.44928 4.66665 5.60144 5.01784 4.97632 5.64296C4.35119 6.26808 4.00001 7.11592 4.00001 7.99998C4.00001 8.88403 4.35119 9.73188 4.97632 10.357C5.60144 10.9821 6.44928 11.3333 7.33334 11.3333C8.21739 11.3333 9.06524 10.9821 9.69036 10.357C10.3155 9.73188 10.6667 8.88403 10.6667 7.99998C10.6667 7.11592 10.3155 6.26808 9.69036 5.64296C9.06524 5.01784 8.21739 4.66665 7.33334 4.66665ZM10 15.5C10 14.7485 10.2985 14.0279 10.8299 13.4965C11.3612 12.9652 12.0819 12.6666 12.8333 12.6666H19.1667C19.9181 12.6666 20.6388 12.9652 21.1701 13.4965C21.7015 14.0279 22 14.7485 22 15.5V22.6666C22 24.2579 21.3679 25.7841 20.2426 26.9093C19.1174 28.0345 17.5913 28.6666 16 28.6666C14.4087 28.6666 12.8826 28.0345 11.7574 26.9093C10.6321 25.7841 10 24.2579 10 22.6666V15.5ZM16 27C17.1493 27 18.2515 26.5434 19.0641 25.7308C19.8768 24.9181 20.3333 23.8159 20.3333 22.6666V15.5C20.3333 15.1906 20.2104 14.8938 19.9916 14.675C19.7728 14.4562 19.4761 14.3333 19.1667 14.3333H12.8333C12.5239 14.3333 12.2272 14.4562 12.0084 14.675C11.7896 14.8938 11.6667 15.1906 11.6667 15.5V22.6666C11.6667 23.8159 12.1232 24.9181 12.9359 25.7308C13.7485 26.5434 14.8507 27 16 27ZM7.33334 25C7.89084 25.0009 8.43746 24.8457 8.91134 24.552C9.05734 25.1026 9.26601 25.6273 9.52867 26.1186C8.81756 26.4977 8.0204 26.6862 7.21482 26.6658C6.40923 26.6453 5.62267 26.4166 4.93173 26.0019C4.24079 25.5871 3.66901 25.0006 3.27207 24.2993C2.87513 23.598 2.66656 22.8058 2.66667 22V15.5006C2.66658 15.1285 2.73981 14.76 2.88216 14.4162C3.0245 14.0723 3.23319 13.7599 3.4963 13.4967C3.75941 13.2336 4.07178 13.0248 4.41558 12.8824C4.75938 12.74 5.12787 12.6666 5.50001 12.6666H9.16667C9.35867 12.6666 9.54667 12.686 9.72734 12.722C9.31215 13.1854 9.00619 13.736 8.83201 14.3333H5.50001C5.19059 14.3333 4.89384 14.4562 4.67505 14.675C4.45625 14.8938 4.33334 15.1906 4.33334 15.5V22C4.33334 22.7956 4.64941 23.5587 5.21202 24.1213C5.77463 24.6839 6.53769 25 7.33334 25ZM24.6667 26.6666C23.901 26.6679 23.1468 26.4799 22.4713 26.1193C22.734 25.6273 22.9427 25.1026 23.0887 24.552C23.5431 24.8331 24.0644 24.9876 24.5987 24.9998C25.1329 25.0119 25.6606 24.8811 26.1274 24.6209C26.5941 24.3607 26.9829 23.9806 27.2535 23.5198C27.5241 23.059 27.6668 22.5343 27.6667 22V15.5C27.6667 15.1906 27.5438 14.8938 27.325 14.675C27.1062 14.4562 26.8094 14.3333 26.5 14.3333H23.168C22.9936 13.7359 22.6874 13.1853 22.272 12.722C22.454 12.686 22.6413 12.6666 22.8333 12.6666H26.5C27.2514 12.6666 27.9721 12.9652 28.5035 13.4965C29.0348 14.0279 29.3333 14.7485 29.3333 15.5V22C29.3333 23.2377 28.8417 24.4246 27.9665 25.2998C27.0913 26.175 25.9043 26.6666 24.6667 26.6666Z" fill="black"/>
</g>
</svg>
