<svg width="32" height="32" viewBox="0 0 32 32" fill="none" xmlns="http://www.w3.org/2000/svg">
<path d="M7.99984 25.3333C7.99984 26.8 9.19984 28 10.6665 28H21.3332C22.7998 28 23.9998 26.8 23.9998 25.3333V12C23.9998 10.5333 22.7998 9.33333 21.3332 9.33333H10.6665C9.19984 9.33333 7.99984 10.5333 7.99984 12V25.3333ZM23.9998 5.33333H20.6665L19.7198 4.38667C19.4798 4.14667 19.1332 4 18.7865 4H13.2132C12.8665 4 12.5198 4.14667 12.2798 4.38667L11.3332 5.33333H7.99984C7.2665 5.33333 6.6665 5.93333 6.6665 6.66667C6.6665 7.4 7.2665 8 7.99984 8H23.9998C24.7332 8 25.3332 7.4 25.3332 6.66667C25.3332 5.93333 24.7332 5.33333 23.9998 5.33333Z" fill="#F8F8F8"/>
</svg>
